<?xml version="1.0" encoding="UTF-8"?>
      <mxfile host="codeviz.app" modified="2025-04-16T05:58:40.900Z" agent="CodeViz Exporter" version="14.6.5" type="device">
        <diagram id="codeviz-diagram" name="System Diagram">
          <mxGraphModel dx="1000" dy="1000" grid="1" gridSize="10" guides="1" tooltips="1" connect="1" arrows="1" fold="1" page="1" pageScale="1" pageWidth="1169" pageHeight="827" math="0" shadow="0">
            <root>
              <mxCell id="0"/>
              <mxCell id="1" parent="0"/>
              <mxCell id="Loss" value="" style="html=1;whiteSpace=wrap;container=1;fillColor=#dae8fc;strokeColor=#6c8ebf;dashed=1;fillOpacity=20;strokeWidth=2;containerType=none;recursiveResize=0;movable=1;resizable=1;autosize=0;dropTarget=0" vertex="1" parent="1">
                <mxGeometry x="97.5" y="1942" width="240" height="220" as="geometry"/>
              </mxCell>
              <mxCell id="Loss_label" value="Loss" style="edgeLabel;html=1;align=center;verticalAlign=middle;resizable=0;labelBackgroundColor=white;spacing=5" vertex="1" parent="1">
                <mxGeometry x="105.5" y="1950" width="164" height="24" as="geometry"/>
              </mxCell>
<mxCell id="Training" value="" style="html=1;whiteSpace=wrap;container=1;fillColor=#dae8fc;strokeColor=#6c8ebf;dashed=1;fillOpacity=20;strokeWidth=2;containerType=none;recursiveResize=0;movable=1;resizable=1;autosize=0;dropTarget=0" vertex="1" parent="1">
                <mxGeometry x="62.5" y="2182" width="260" height="300" as="geometry"/>
              </mxCell>
              <mxCell id="Training_label" value="Training" style="edgeLabel;html=1;align=center;verticalAlign=middle;resizable=0;labelBackgroundColor=white;spacing=5" vertex="1" parent="1">
                <mxGeometry x="70.5" y="2190" width="184" height="24" as="geometry"/>
              </mxCell>
<mxCell id="Fusion" value="" style="html=1;whiteSpace=wrap;container=1;fillColor=#dae8fc;strokeColor=#6c8ebf;dashed=1;fillOpacity=20;strokeWidth=2;containerType=none;recursiveResize=0;movable=1;resizable=1;autosize=0;dropTarget=0" vertex="1" parent="1">
                <mxGeometry x="137.5" y="1142" width="240" height="220" as="geometry"/>
              </mxCell>
              <mxCell id="Fusion_label" value="Fusion" style="edgeLabel;html=1;align=center;verticalAlign=middle;resizable=0;labelBackgroundColor=white;spacing=5" vertex="1" parent="1">
                <mxGeometry x="145.5" y="1150" width="164" height="24" as="geometry"/>
              </mxCell>
<mxCell id="Language_Model" value="" style="html=1;whiteSpace=wrap;container=1;fillColor=#dae8fc;strokeColor=#6c8ebf;dashed=1;fillOpacity=20;strokeWidth=2;containerType=none;recursiveResize=0;movable=1;resizable=1;autosize=0;dropTarget=0" vertex="1" parent="1">
                <mxGeometry x="46.5" y="1382" width="291" height="540" as="geometry"/>
              </mxCell>
              <mxCell id="Language_Model_label" value="Language_Model" style="edgeLabel;html=1;align=center;verticalAlign=middle;resizable=0;labelBackgroundColor=white;spacing=5" vertex="1" parent="1">
                <mxGeometry x="54.5" y="1390" width="215" height="24" as="geometry"/>
              </mxCell>
<mxCell id="Feature_Projection" value="" style="html=1;whiteSpace=wrap;container=1;fillColor=#dae8fc;strokeColor=#6c8ebf;dashed=1;fillOpacity=20;strokeWidth=2;containerType=none;recursiveResize=0;movable=1;resizable=1;autosize=0;dropTarget=0" vertex="1" parent="1">
                <mxGeometry x="157.5" y="822" width="240" height="300" as="geometry"/>
              </mxCell>
              <mxCell id="Feature_Projection_label" value="Feature_Projection" style="edgeLabel;html=1;align=center;verticalAlign=middle;resizable=0;labelBackgroundColor=white;spacing=5" vertex="1" parent="1">
                <mxGeometry x="165.5" y="830" width="164" height="24" as="geometry"/>
              </mxCell>
<mxCell id="Vision_Encoder" value="" style="html=1;whiteSpace=wrap;container=1;fillColor=#dae8fc;strokeColor=#6c8ebf;dashed=1;fillOpacity=20;strokeWidth=2;containerType=none;recursiveResize=0;movable=1;resizable=1;autosize=0;dropTarget=0" vertex="1" parent="1">
                <mxGeometry x="157.5" y="502" width="240" height="300" as="geometry"/>
              </mxCell>
              <mxCell id="Vision_Encoder_label" value="Vision_Encoder" style="edgeLabel;html=1;align=center;verticalAlign=middle;resizable=0;labelBackgroundColor=white;spacing=5" vertex="1" parent="1">
                <mxGeometry x="165.5" y="510" width="164" height="24" as="geometry"/>
              </mxCell>
<mxCell id="Preprocessing" value="" style="html=1;whiteSpace=wrap;container=1;fillColor=#dae8fc;strokeColor=#6c8ebf;dashed=1;fillOpacity=20;strokeWidth=2;containerType=none;recursiveResize=0;movable=1;resizable=1;autosize=0;dropTarget=0" vertex="1" parent="1">
                <mxGeometry x="22" y="262" width="380" height="220" as="geometry"/>
              </mxCell>
              <mxCell id="Preprocessing_label" value="Preprocessing" style="edgeLabel;html=1;align=center;verticalAlign=middle;resizable=0;labelBackgroundColor=white;spacing=5" vertex="1" parent="1">
                <mxGeometry x="30" y="270" width="304" height="24" as="geometry"/>
              </mxCell>
<mxCell id="Input" value="" style="html=1;whiteSpace=wrap;container=1;fillColor=#dae8fc;strokeColor=#6c8ebf;dashed=1;fillOpacity=20;strokeWidth=2;containerType=none;recursiveResize=0;movable=1;resizable=1;autosize=0;dropTarget=0" vertex="1" parent="1">
                <mxGeometry x="22" y="22" width="380" height="220" as="geometry"/>
              </mxCell>
              <mxCell id="Input_label" value="Input" style="edgeLabel;html=1;align=center;verticalAlign=middle;resizable=0;labelBackgroundColor=white;spacing=5" vertex="1" parent="1">
                <mxGeometry x="30" y="30" width="304" height="24" as="geometry"/>
              </mxCell>
              <mxCell id="img" value="Image Input" style="rounded=1;whiteSpace=wrap;html=1;fillColor=#f5f5f5" vertex="1" parent="Input">
                    <mxGeometry x="180" y="120" width="120" height="60" as="geometry"/>
                  </mxCell>
<mxCell id="txt" value="Text Input" style="rounded=1;whiteSpace=wrap;html=1;fillColor=#f5f5f5" vertex="1" parent="Input">
                    <mxGeometry x="40" y="120" width="120" height="60" as="geometry"/>
                  </mxCell>
<mxCell id="imgPrep" value="Image Preprocessing" style="rounded=1;whiteSpace=wrap;html=1;fillColor=#f5f5f5" vertex="1" parent="Preprocessing">
                    <mxGeometry x="180" y="120" width="120" height="60" as="geometry"/>
                  </mxCell>
<mxCell id="txtPrep" value="Text Tokenization" style="rounded=1;whiteSpace=wrap;html=1;fillColor=#f5f5f5" vertex="1" parent="Preprocessing">
                    <mxGeometry x="40" y="120" width="120" height="60" as="geometry"/>
                  </mxCell>
<mxCell id="clipVision" value="CLIP Vision Encoder" style="rounded=1;whiteSpace=wrap;html=1;fillColor=#f5f5f5" vertex="1" parent="Vision_Encoder">
                    <mxGeometry x="40" y="120" width="120" height="60" as="geometry"/>
                  </mxCell>
<mxCell id="imgFeats" value="Image Features 196x768" style="rounded=1;whiteSpace=wrap;html=1;fillColor=#f5f5f5" vertex="1" parent="Vision_Encoder">
                    <mxGeometry x="40" y="200" width="120" height="60" as="geometry"/>
                  </mxCell>
<mxCell id="proj" value="Vision Projection Layer" style="rounded=1;whiteSpace=wrap;html=1;fillColor=#f5f5f5" vertex="1" parent="Feature_Projection">
                    <mxGeometry x="40" y="120" width="120" height="60" as="geometry"/>
                  </mxCell>
<mxCell id="alignedFeats" value="Aligned Features 196x512" style="rounded=1;whiteSpace=wrap;html=1;fillColor=#f5f5f5" vertex="1" parent="Feature_Projection">
                    <mxGeometry x="40" y="200" width="120" height="60" as="geometry"/>
                  </mxCell>
<mxCell id="embed" value="Token Embeddings" style="rounded=1;whiteSpace=wrap;html=1;fillColor=#f5f5f5" vertex="1" parent="Language_Model">
                    <mxGeometry x="40" y="120" width="120" height="60" as="geometry"/>
                  </mxCell>
<mxCell id="attn" value="Self Attention" style="rounded=1;whiteSpace=wrap;html=1;fillColor=#f5f5f5" vertex="1" parent="Language_Model">
                    <mxGeometry x="91" y="200" width="120" height="60" as="geometry"/>
                  </mxCell>
<mxCell id="ffn" value="Feed Forward" style="rounded=1;whiteSpace=wrap;html=1;fillColor=#f5f5f5" vertex="1" parent="Language_Model">
                    <mxGeometry x="91" y="280" width="120" height="60" as="geometry"/>
                  </mxCell>
<mxCell id="norm" value="Layer Norm" style="rounded=1;whiteSpace=wrap;html=1;fillColor=#f5f5f5" vertex="1" parent="Language_Model">
                    <mxGeometry x="91" y="360" width="120" height="60" as="geometry"/>
                  </mxCell>
<mxCell id="output" value="Output Layer" style="rounded=1;whiteSpace=wrap;html=1;fillColor=#f5f5f5" vertex="1" parent="Language_Model">
                    <mxGeometry x="91" y="440" width="120" height="60" as="geometry"/>
                  </mxCell>
<mxCell id="replace" value="Token Replacement" style="rounded=1;whiteSpace=wrap;html=1;fillColor=#f5f5f5" vertex="1" parent="Fusion">
                    <mxGeometry x="40" y="120" width="120" height="60" as="geometry"/>
                  </mxCell>
<mxCell id="pretrain" value="Pretraining Phase" style="rounded=1;whiteSpace=wrap;html=1;fillColor=#f5f5f5" vertex="1" parent="Training">
                    <mxGeometry x="40" y="120" width="120" height="60" as="geometry"/>
                  </mxCell>
<mxCell id="sft" value="Supervised Fine-tuning" style="rounded=1;whiteSpace=wrap;html=1;fillColor=#f5f5f5" vertex="1" parent="Training">
                    <mxGeometry x="60" y="200" width="120" height="60" as="geometry"/>
                  </mxCell>
<mxCell id="crossEntropy" value="Cross Entropy Loss" style="rounded=1;whiteSpace=wrap;html=1;fillColor=#f5f5f5" vertex="1" parent="Loss">
                    <mxGeometry x="40" y="120" width="120" height="60" as="geometry"/>
                  </mxCell>
              <mxCell id="edge-L_img_imgPrep_0" style="edgeStyle=orthogonalEdgeStyle;rounded=1;orthogonalLoop=1;jettySize=auto;html=1;strokeColor=#808080;strokeWidth=2;jumpStyle=arc;jumpSize=10;spacing=15;labelBackgroundColor=white;labelBorderColor=none" edge="1" parent="1" source="img" target="imgPrep">
                  <mxGeometry relative="1" as="geometry"/>
                </mxCell>
<mxCell id="edge-L_txt_txtPrep_1" style="edgeStyle=orthogonalEdgeStyle;rounded=1;orthogonalLoop=1;jettySize=auto;html=1;strokeColor=#808080;strokeWidth=2;jumpStyle=arc;jumpSize=10;spacing=15;labelBackgroundColor=white;labelBorderColor=none" edge="1" parent="1" source="txt" target="txtPrep">
                  <mxGeometry relative="1" as="geometry"/>
                </mxCell>
<mxCell id="edge-L_imgPrep_clipVision_2" style="edgeStyle=orthogonalEdgeStyle;rounded=1;orthogonalLoop=1;jettySize=auto;html=1;strokeColor=#808080;strokeWidth=2;jumpStyle=arc;jumpSize=10;spacing=15;labelBackgroundColor=white;labelBorderColor=none" edge="1" parent="1" source="imgPrep" target="clipVision">
                  <mxGeometry relative="1" as="geometry"/>
                </mxCell>
<mxCell id="edge-L_clipVision_imgFeats_3" style="edgeStyle=orthogonalEdgeStyle;rounded=1;orthogonalLoop=1;jettySize=auto;html=1;strokeColor=#808080;strokeWidth=2;jumpStyle=arc;jumpSize=10;spacing=15;labelBackgroundColor=white;labelBorderColor=none" edge="1" parent="1" source="clipVision" target="imgFeats">
                  <mxGeometry relative="1" as="geometry"/>
                </mxCell>
<mxCell id="edge-L_imgFeats_proj_4" style="edgeStyle=orthogonalEdgeStyle;rounded=1;orthogonalLoop=1;jettySize=auto;html=1;strokeColor=#808080;strokeWidth=2;jumpStyle=arc;jumpSize=10;spacing=15;labelBackgroundColor=white;labelBorderColor=none" edge="1" parent="1" source="imgFeats" target="proj">
                  <mxGeometry relative="1" as="geometry"/>
                </mxCell>
<mxCell id="edge-L_proj_alignedFeats_5" style="edgeStyle=orthogonalEdgeStyle;rounded=1;orthogonalLoop=1;jettySize=auto;html=1;strokeColor=#808080;strokeWidth=2;jumpStyle=arc;jumpSize=10;spacing=15;labelBackgroundColor=white;labelBorderColor=none" edge="1" parent="1" source="proj" target="alignedFeats">
                  <mxGeometry relative="1" as="geometry"/>
                </mxCell>
<mxCell id="edge-L_txtPrep_embed_6" style="edgeStyle=orthogonalEdgeStyle;rounded=1;orthogonalLoop=1;jettySize=auto;html=1;strokeColor=#808080;strokeWidth=2;jumpStyle=arc;jumpSize=10;spacing=15;labelBackgroundColor=white;labelBorderColor=none" edge="1" parent="1" source="txtPrep" target="embed">
                  <mxGeometry relative="1" as="geometry"/>
                </mxCell>
<mxCell id="edge-L_embed_attn_7" style="edgeStyle=orthogonalEdgeStyle;rounded=1;orthogonalLoop=1;jettySize=auto;html=1;strokeColor=#808080;strokeWidth=2;jumpStyle=arc;jumpSize=10;spacing=15;labelBackgroundColor=white;labelBorderColor=none" edge="1" parent="1" source="embed" target="attn">
                  <mxGeometry relative="1" as="geometry"/>
                </mxCell>
<mxCell id="edge-L_attn_ffn_8" style="edgeStyle=orthogonalEdgeStyle;rounded=1;orthogonalLoop=1;jettySize=auto;html=1;strokeColor=#808080;strokeWidth=2;jumpStyle=arc;jumpSize=10;spacing=15;labelBackgroundColor=white;labelBorderColor=none" edge="1" parent="1" source="attn" target="ffn">
                  <mxGeometry relative="1" as="geometry"/>
                </mxCell>
<mxCell id="edge-L_ffn_norm_9" style="edgeStyle=orthogonalEdgeStyle;rounded=1;orthogonalLoop=1;jettySize=auto;html=1;strokeColor=#808080;strokeWidth=2;jumpStyle=arc;jumpSize=10;spacing=15;labelBackgroundColor=white;labelBorderColor=none" edge="1" parent="1" source="ffn" target="norm">
                  <mxGeometry relative="1" as="geometry"/>
                </mxCell>
<mxCell id="edge-L_norm_output_10" style="edgeStyle=orthogonalEdgeStyle;rounded=1;orthogonalLoop=1;jettySize=auto;html=1;strokeColor=#808080;strokeWidth=2;jumpStyle=arc;jumpSize=10;spacing=15;labelBackgroundColor=white;labelBorderColor=none" edge="1" parent="1" source="norm" target="output">
                  <mxGeometry relative="1" as="geometry"/>
                </mxCell>
<mxCell id="edge-L_alignedFeats_replace_11" style="edgeStyle=orthogonalEdgeStyle;rounded=1;orthogonalLoop=1;jettySize=auto;html=1;strokeColor=#808080;strokeWidth=2;jumpStyle=arc;jumpSize=10;spacing=15;labelBackgroundColor=white;labelBorderColor=none" edge="1" parent="1" source="alignedFeats" target="replace">
                  <mxGeometry relative="1" as="geometry"/>
                </mxCell>
<mxCell id="edge-L_embed_replace_12" style="edgeStyle=orthogonalEdgeStyle;rounded=1;orthogonalLoop=1;jettySize=auto;html=1;strokeColor=#808080;strokeWidth=2;jumpStyle=arc;jumpSize=10;spacing=15;labelBackgroundColor=white;labelBorderColor=none" edge="1" parent="1" source="embed" target="replace">
                  <mxGeometry relative="1" as="geometry"/>
                </mxCell>
<mxCell id="edge-L_pretrain_sft_13" style="edgeStyle=orthogonalEdgeStyle;rounded=1;orthogonalLoop=1;jettySize=auto;html=1;strokeColor=#808080;strokeWidth=2;jumpStyle=arc;jumpSize=10;spacing=15;labelBackgroundColor=white;labelBorderColor=none" edge="1" parent="1" source="pretrain" target="sft">
                  <mxGeometry relative="1" as="geometry"/>
                </mxCell>
<mxCell id="edge-L_output_crossEntropy_14" style="edgeStyle=orthogonalEdgeStyle;rounded=1;orthogonalLoop=1;jettySize=auto;html=1;strokeColor=#808080;strokeWidth=2;jumpStyle=arc;jumpSize=10;spacing=15;labelBackgroundColor=white;labelBorderColor=none" edge="1" parent="1" source="output" target="crossEntropy">
                  <mxGeometry relative="1" as="geometry"/>
                </mxCell>
<mxCell id="edge-L_replace_attn_15" style="edgeStyle=orthogonalEdgeStyle;rounded=1;orthogonalLoop=1;jettySize=auto;html=1;strokeColor=#808080;strokeWidth=2;jumpStyle=arc;jumpSize=10;spacing=15;labelBackgroundColor=white;labelBorderColor=none" edge="1" parent="1" source="replace" target="attn">
                  <mxGeometry relative="1" as="geometry"/>
                </mxCell>
<mxCell id="edge-L_crossEntropy_pretrain_16" style="edgeStyle=orthogonalEdgeStyle;rounded=1;orthogonalLoop=1;jettySize=auto;html=1;strokeColor=#808080;strokeWidth=2;jumpStyle=arc;jumpSize=10;spacing=15;labelBackgroundColor=white;labelBorderColor=none" edge="1" parent="1" source="crossEntropy" target="pretrain">
                  <mxGeometry relative="1" as="geometry"/>
                </mxCell>
<mxCell id="edge-L_crossEntropy_sft_17" style="edgeStyle=orthogonalEdgeStyle;rounded=1;orthogonalLoop=1;jettySize=auto;html=1;strokeColor=#808080;strokeWidth=2;jumpStyle=arc;jumpSize=10;spacing=15;labelBackgroundColor=white;labelBorderColor=none" edge="1" parent="1" source="crossEntropy" target="sft">
                  <mxGeometry relative="1" as="geometry"/>
                </mxCell>
            </root>
          </mxGraphModel>
        </diagram>
      </mxfile>